# xmcd
#
# Track frame offsets:
#   150
#   15526
#   31200
#   50324
#   66449
#   186859
#   204334
#   219634
#   230957
#   245136
#   259382
#   274157
#
# Disc length: 3906 seconds
#
# Revision: 0
# Processed by: cddbd v1.5.1PL0 Copyright (c) Steve Scherf et al.
# Submitted via: Media_Universe 3.0
#
DISCID=b90f400c
DTITLE=Katie Melua - Call of the Search
DYEAR=1900
DGENRE=Blues
TTITLE0=Call of the search
TTITLE1=Crawling up a hill
TTITLE2=The closest thing to crazy
TTITLE3=My aphrodisiac is you
TTITLE4=Learnin' the blues
TTITLE5=Blame it on the Moon
TTITLE6=Belfast (Penguins and Cats)
TTITLE7=I thin it's going to rain today
TTITLE8=Mockingbird song
TTITLE9=Tiger in the night
TTITLE10=Faraway voice
TTITLE11=Lilac Wine
EXTD=
EXTT0=
EXTT1=
EXTT2=
EXTT3=
EXTT4=
EXTT5=
EXTT6=
EXTT7=
EXTT8=
EXTT9=
EXTT10=
EXTT11=
PLAYORDER=
